<?xml version="1.0" encoding="UTF-8"?>
<svg id="Layer_1" data-name="Layer 1" xmlns="http://www.w3.org/2000/svg" width="682.24" height="468.76" viewBox="0 0 682.24 468.76">
  <path d="M637.66,0c-11.77-.09-23.12,4.39-31.65,12.52L227.92,362.75,77.01,230.73c-8.92-8.71-21.04-13.35-33.49-12.85-12.46.5-24.16,6.11-32.35,15.51C2.97,242.78-.99,255.14.21,267.55c1.2,12.41,7.45,23.78,17.29,31.43l181.37,158.7h0c8.43,7.31,19.26,11.25,30.41,11.08,11.15-.18,21.85-4.45,30.05-12.02L667.42,78.88c9.01-8.2,14.34-19.68,14.79-31.86.45-12.18-4.02-24.02-12.4-32.87C661.44,5.31,649.85.21,637.67,0h0Z" fill="#000" stroke-width="0"/>
</svg>