<?xml version="1.0" encoding="UTF-8"?>
<svg id="Layer_1" data-name="Layer 1" xmlns="http://www.w3.org/2000/svg" width="1125" height="1125" viewBox="0 0 1125 1125">
  <path d="M562.5,0C252.32,0,0,252.32,0,562.5s252.32,562.5,562.5,562.5,562.5-252.32,562.5-562.5S872.68,0,562.5,0ZM851.53,401.53l-337.5,337.5c-7.31,7.31-16.92,10.97-26.53,10.97s-19.22-3.66-26.53-10.97l-150-150c-14.67-14.67-14.67-38.34,0-53.02s38.34-14.67,53.02,0l123.47,123.47,310.97-310.97c14.67-14.67,38.34-14.67,53.02,0s14.67,38.34,0,53.02h.09Z" fill="#0c2f52" stroke-width="0"/>
</svg>